<svg xmlns="http://www.w3.org/2000/svg" viewBox="0 0 57.88 59.24"><defs><style>.cls-1{fill:none;stroke:#fff;stroke-linecap:round;stroke-linejoin:round;stroke-width:3px;}</style></defs><g id="Layer_2" data-name="Layer 2"><g id="Layer_1-2" data-name="Layer 1"><path class="cls-1" d="M1.5,24.45,7,19,17.15,29l-5.77,5.47Z"/><path class="cls-1" d="M6.4,29.42,12,24"/><path class="cls-1" d="M4.23,21.56,16.84,34.17"/><path class="cls-1" d="M10.46,40.4,23.38,28.7l7.44,6.84L18.21,48.15Z"/><path class="cls-1" d="M8.94,49.52l5.47-5.17"/><path class="cls-1" d="M24.52,41.85l12.2,12.34"/><path class="cls-1" d="M29.91,19.74l9.42,9.57a6.9,6.9,0,0,1-10,0A6.88,6.88,0,0,1,29.91,19.74Z"/><path class="cls-1" d="M26.51,31.58l2.79-2.27"/><path class="cls-1" d="M34.36,24.26,38,21.11"/><path class="cls-1" d="M24.9,47.39l9.62,10.35,5.57-6.1-9.42-9.57Z"/><path class="cls-1" d="M29.9,52.77l5.55-5.84"/><circle class="cls-1" cx="6.45" cy="52.05" r="2.14"/><path class="cls-1" d="M22.28,16.15,24.63,1.5l9.16,8.21,9.63-7.39q.15,6.66.28,13.32L56.38,13.3l-9,13.39"/></g></g></svg>