<svg xmlns="http://www.w3.org/2000/svg" viewBox="0 0 36.59 69.24"><defs><style>.cls-1,.cls-2{fill:none;stroke:#fff;stroke-linecap:round;stroke-linejoin:round;}.cls-1{stroke-width:3px;}.cls-2{stroke-width:2.7px;}</style></defs><g id="Layer_2" data-name="Layer 2"><g id="Layer_1-2" data-name="Layer 1"><path class="cls-1" d="M2.5,19.72l-1-14.8,10.77,5.94L20,1.5Q21.62,8,23.26,14.42L35.09,9.3,29.32,24.36"/><path class="cls-2" d="M15.63,19a28.56,28.56,0,0,0-3.39,32.17h6.17a27.19,27.19,0,0,0,4-16.51A27.19,27.19,0,0,0,15.63,19Z"/><path class="cls-2" d="M9.07,41.49,4,48.29l-.25,4.58,7.16-4.46"/><path class="cls-2" d="M22.76,41.13l5,6.8.24,4.58-7.16-4.46"/><path class="cls-2" d="M12.24,51.19c-.73,1.56-1.45,3.13-2.18,4.69l9.92.24-1.57-4.93"/><ellipse class="cls-2" cx="15.18" cy="36.34" rx="3.11" ry="3.1"/><path class="cls-2" d="M10.67,27.41l10-.05"/><line class="cls-1" x1="10.35" y1="62.27" x2="10.35" y2="67.74"/><line class="cls-1" x1="15.69" y1="62.27" x2="15.69" y2="67.74"/><line class="cls-1" x1="20.89" y1="62.27" x2="20.89" y2="67.74"/></g></g></svg>