<svg xmlns="http://www.w3.org/2000/svg" viewBox="0 0 261.42 36.75"><defs><style>.cls-1{fill:#fff;}.cls-2{fill:#fbca1a;}</style></defs><g id="Layer_2" data-name="Layer 2"><g id="Layer_1-2" data-name="Layer 1"><path class="cls-1" d="M151,18.8a6.14,6.14,0,0,1-.34,3.35,10.32,10.32,0,0,1-2.23,3.58,10.7,10.7,0,0,1-3.72,2.61,11.06,11.06,0,0,1-5.67.9A9.84,9.84,0,0,1,135.17,28l-5.82,5.25a16.94,16.94,0,0,0,8.41,3.2,20,20,0,0,0,16.57-6.62,17.33,17.33,0,0,0,3.72-7,15.78,15.78,0,0,0,.48-4Z"/><path class="cls-1" d="M153,5.59,152.48,5l0,0a15.35,15.35,0,0,0-11.2-5,19.3,19.3,0,0,0-8.24,1.71,19,19,0,0,0-7.73,5.87,17.09,17.09,0,0,0-3.5,8.53,18.16,18.16,0,0,0,1.48,9.45,20,20,0,0,0,1.45,2.76l5.45-6.18a11.18,11.18,0,0,1-.8-5.39,10.2,10.2,0,0,1,2-5.14A11.12,11.12,0,0,1,136,8.12a10.87,10.87,0,0,1,6.26-.86,9.05,9.05,0,0,1,2.87.92h0l-13.73,16.3-5.06,6-.72.85-4.55,5.4,5.4-4.32,1-.77,6-4.83L155.83,9A33.42,33.42,0,0,0,153,5.59Z"/><path class="cls-1" d="M21.85,1.9a12.25,12.25,0,0,1,4.91,4,10.69,10.69,0,0,1,2,5.8H20.83a5.19,5.19,0,0,0-2-3.54,7,7,0,0,0-4.38-1.27,7.52,7.52,0,0,0-4.09,1A2.91,2.91,0,0,0,8.9,10.37a2.59,2.59,0,0,0,.93,2.07,8,8,0,0,0,2.84,1.41,57.24,57.24,0,0,0,5.59,1.37q5.7,1.19,8.16,3.91a9.72,9.72,0,0,1,2.47,6.81,9,9,0,0,1-1.83,5.61,11.71,11.71,0,0,1-5,3.69,18.71,18.71,0,0,1-7,1.28,18.86,18.86,0,0,1-7.57-1.45,12.65,12.65,0,0,1-5.31-4.16A11.35,11.35,0,0,1,0,24.59H7.89a5.69,5.69,0,0,0,2.38,4,8.72,8.72,0,0,0,5.29,1.5A6.74,6.74,0,0,0,19.46,29,3.2,3.2,0,0,0,21,26.27,3.15,3.15,0,0,0,20.18,24a6.49,6.49,0,0,0-2.61-1.52,34.82,34.82,0,0,0-5-1.22Q6.8,20.2,3.92,17.63a9.26,9.26,0,0,1-2.87-7.26A8.08,8.08,0,0,1,2.89,5.1a11.61,11.61,0,0,1,5-3.43A19.62,19.62,0,0,1,15,.46,16.08,16.08,0,0,1,21.85,1.9Z"/><path class="cls-1" d="M31.17,1.31H44.38A17.16,17.16,0,0,1,52,2.87a11.35,11.35,0,0,1,4.87,4.38,12.73,12.73,0,0,1,1.69,6.62,12.94,12.94,0,0,1-1.69,6.69A11.29,11.29,0,0,1,52,25a17.16,17.16,0,0,1-7.61,1.56H38.85v9.15H31.17ZM44,19.74a7.6,7.6,0,0,0,5-1.52,5.39,5.39,0,0,0,1.79-4.35,5.27,5.27,0,0,0-1.79-4.3A7.76,7.76,0,0,0,44,8.1H38.85V19.74Z"/><path class="cls-1" d="M94.17,34.18a17.07,17.07,0,0,1-6.58-6.45,18.11,18.11,0,0,1-2.38-9.26,18.14,18.14,0,0,1,2.38-9.26,17.07,17.07,0,0,1,6.58-6.45A19,19,0,0,1,103.59.42a19.34,19.34,0,0,1,8.25,1.69,15.48,15.48,0,0,1,8.92,11.26H113a7.14,7.14,0,0,0-3.14-4.22,10.74,10.74,0,0,0-6.1-1.69A11.06,11.06,0,0,0,98.2,8.88a10.23,10.23,0,0,0-3.91,3.92,11.36,11.36,0,0,0-1.41,5.67,11.39,11.39,0,0,0,1.41,5.65,10.17,10.17,0,0,0,3.91,3.95,11,11,0,0,0,5.56,1.41,10.79,10.79,0,0,0,4.45-.93,10.48,10.48,0,0,0,3.46-2.4,6.3,6.3,0,0,0,1.67-3h7.76a14.42,14.42,0,0,1-2.91,6.58,17.42,17.42,0,0,1-6.18,5,18.85,18.85,0,0,1-8.42,1.87A19,19,0,0,1,94.17,34.18Z"/><polygon class="cls-1" points="87.76 35.68 74.43 1.31 66.46 1.31 53.13 35.68 61.06 35.68 62.75 31 65.84 22.35 65.83 22.35 70.13 10.37 73.59 20.01 73.59 20.01 73.59 20.01 74.43 22.35 74.43 22.35 77.51 31 77.51 31 79.2 35.68 87.76 35.68"/><path class="cls-2" d="M160.34,1.31h6.11l11.86,19.23L190.16,1.31h6.11V35.68H188.6V16.83l-8,13.2H176l-8-13.2V35.68h-7.67Z"/><polygon class="cls-1" points="232.45 35.68 219.13 1.31 211.16 1.31 197.83 35.68 205.76 35.68 207.4 31.12 210.53 22.35 210.52 22.35 212.35 17.27 212.35 17.26 212.35 17.26 214.82 10.37 217.3 17.26 217.3 17.26 217.3 17.27 219.13 22.35 219.12 22.35 223.07 33.39 223.07 33.39 223.89 35.68 232.45 35.68"/><path class="cls-1" d="M234.05,1.31h13.2a17.13,17.13,0,0,1,7.61,1.56,11.3,11.3,0,0,1,4.87,4.38,12.63,12.63,0,0,1,1.69,6.62,12.84,12.84,0,0,1-1.69,6.69A11.24,11.24,0,0,1,254.86,25a17.13,17.13,0,0,1-7.61,1.56h-5.53v9.15h-7.67Zm12.86,18.43a7.6,7.6,0,0,0,5-1.52,5.39,5.39,0,0,0,1.79-4.35A5.27,5.27,0,0,0,252,9.57a7.76,7.76,0,0,0-5-1.47h-5.19V19.74Z"/></g></g></svg>