<?xml version="1.0" encoding="UTF-8"?><svg xmlns="http://www.w3.org/2000/svg" viewBox="0 0 64.06 59.3"><defs><style>.d{fill:#040404;}.d,.e{stroke:#c9c9c9;stroke-linecap:round;stroke-linejoin:round;stroke-width:3px;}.e{fill:none;}</style></defs><g id="a"/><g id="b"><g id="c"><path class="e" d="M24.16,8.08h0S16.9,20.92,3.11,45.29c-.34,.45-2.02,2.75-1.53,5.8,.45,2.82,2.59,5.18,5.49,6.1,15.25,.2,30.51,.41,45.76,.61,.92-.21,4.59,.73,7.68-1.88,1.22-1.03,2.15-3.3,2.03-6.1-.08-1.96-.81-4.03-1.77-5.68-7.02-12.02-13.38-24.29-20.41-36.31C36.35,.68,33.06,1.37,31.18,1.67c-3.47,.56-7.02,6.41-7.02,6.41Z"/><line class="e" x1="32.65" y1="15.46" x2="32.65" y2="39.57"/><circle class="d" cx="32.65" cy="48.17" r=".86"/></g></g></svg>